<svg width="390" height="282" viewBox="0 0 390 282" fill="none" xmlns="http://www.w3.org/2000/svg">
<g clip-path="url(#clip0_3084_35448)">
<path d="M-4.26404e-06 -43.7294C-1.90908e-06 -16.7917 21.8373 5.04553 48.7749 5.04553C75.7126 5.04553 97.5499 -16.7917 97.5499 -43.7294L97.5498 -254.831C97.5498 -281.769 75.7125 -303.606 48.7749 -303.606C21.8373 -303.606 -2.50741e-05 -281.769 -2.27191e-05 -254.831L-4.26404e-06 -43.7294Z" fill="#4880FF"/>
<g style="mix-blend-mode:overlay" opacity="0.4">
<path d="M-4.26404e-06 61.2058C-1.90908e-06 88.1434 21.8373 109.981 48.7749 109.981C75.7126 109.981 97.5499 88.1434 97.5499 61.2058L97.5498 -112.661C97.5498 -139.598 75.7125 -161.436 48.7749 -161.436C21.8373 -161.436 -2.18189e-05 -139.598 -1.94639e-05 -112.661L-4.26404e-06 61.2058Z" fill="white"/>
</g>
<g style="mix-blend-mode:overlay" opacity="0.4">
<rect width="97.5499" height="271.724" rx="48.7749" transform="matrix(1 -8.74228e-08 -8.74228e-08 -1 195.715 223.225)" fill="white"/>
</g>
<rect width="98.1653" height="310.498" rx="49.0827" transform="matrix(1 -8.74228e-08 -8.74228e-08 -1 97.5498 157.986)" fill="#C0D5FE"/>
<rect width="97.5499" height="271.724" rx="48.7749" transform="matrix(1 -8.74228e-08 -8.74228e-08 -1 195.715 69.9761)" fill="#4880FF"/>
<path d="M-4.26404e-06 225.225C-1.90908e-06 252.163 21.8373 274 48.7749 274C75.7126 274 97.5499 252.163 97.5499 225.225L97.5499 100.441C97.5498 46.566 53.8753 2.89138 -2.37011e-05 2.89139L-4.26404e-06 225.225Z" fill="#4880FF"/>
<path d="M390.55 1.01788C390.55 54.8932 346.875 98.5676 293 98.5676L293 -151L390.55 -151L390.55 1.01788Z" fill="#C0D5FE"/>
</g>
<defs>
<clipPath id="clip0_3084_35448">
<rect width="390" height="282" fill="white" transform="matrix(1 -8.74228e-08 -8.74228e-08 -1 0 282)"/>
</clipPath>
</defs>
</svg>
