<svg width="479" height="665" viewBox="0 0 479 665" fill="none" xmlns="http://www.w3.org/2000/svg">
<path d="M0 390.066C0 356.996 26.809 330.187 59.8795 330.187C92.95 330.187 119.759 356.996 119.759 390.067V649.229C119.759 682.3 92.95 709.109 59.8795 709.109C26.809 709.109 0 682.3 0 649.229V390.066Z" fill="#4880FF"/>
<g style="mix-blend-mode:overlay" opacity="0.4">
<path d="M0 261.241C0 228.17 26.809 201.361 59.8795 201.361C92.95 201.361 119.759 228.17 119.759 261.241V474.691C119.759 507.762 92.95 534.571 59.8795 534.571C26.809 534.571 0 507.762 0 474.691V261.241Z" fill="white"/>
</g>
<g style="mix-blend-mode:overlay" opacity="0.4">
<rect x="240.273" y="62.3352" width="119.759" height="333.587" rx="59.8795" fill="white"/>
</g>
<rect x="119.759" y="142.426" width="120.515" height="381.189" rx="60.2573" fill="#C0D5FE"/>
<rect x="240.273" y="250.474" width="119.759" height="333.587" rx="59.8795" fill="#4880FF"/>
<path d="M0 59.8794C0 26.8089 26.809 0 59.8795 0C92.95 0 119.759 26.809 119.759 59.8795V213.073C119.759 279.214 66.1411 332.832 0 332.832V59.8794Z" fill="#4880FF"/>
<path d="M240.273 623.351C240.273 557.21 293.891 503.592 360.032 503.592V809.978H240.273V623.351Z" fill="#C0D5FE"/>
<path d="M479.792 623.351C479.792 557.21 426.174 503.592 360.033 503.592V809.978H479.792V623.351Z" fill="#4880FF"/>
<g style="mix-blend-mode:overlay" opacity="0.4">
<rect x="119.759" y="476.769" width="120.515" height="333.209" rx="60.2573" fill="white"/>
</g>
<path d="M0 815.449C0 848.519 26.809 875.328 59.8795 875.328C92.95 875.328 119.759 848.519 119.759 815.449V662.255C119.759 596.114 66.1411 542.496 0 542.496V815.449Z" fill="#C0D5FE"/>
</svg>
