<svg width="42" height="42" viewBox="0 0 42 42" fill="none" xmlns="http://www.w3.org/2000/svg">
<g clip-path="url(#clip0_5058_38958)">
<path d="M21 0C15.4317 0 10.0866 2.21386 6.15234 6.1507C2.21407 10.0891 0.00109092 15.4303 0 21C0 26.5673 2.21484 31.9125 6.15234 35.8493C10.0866 39.7861 15.4317 42 21 42C26.5683 42 31.9134 39.7861 35.8477 35.8493C39.7852 31.9125 42 26.5673 42 21C42 15.4327 39.7852 10.0875 35.8477 6.1507C31.9134 2.21386 26.5683 0 21 0Z" fill="url(#paint0_linear_5058_38958)"/>
<path d="M9.50597 20.7781C15.6288 18.1111 19.7107 16.3527 21.7516 15.5031C27.5857 13.0773 28.7964 12.656 29.5872 12.6417C29.7611 12.6389 30.1483 12.6819 30.401 12.8862C30.611 13.0584 30.67 13.2914 30.6996 13.455C30.7258 13.6184 30.7619 13.9908 30.7324 14.2815C30.4174 17.6022 29.0491 25.6602 28.3535 29.3795C28.0614 30.9532 27.4807 31.4809 26.9196 31.5324C25.6989 31.6446 24.7736 30.7265 23.5924 29.9525C21.745 28.7407 20.7016 27.9867 18.9068 26.8044C16.833 25.4381 18.1783 24.687 19.3596 23.4598C19.668 23.1386 25.0427 18.2512 25.1444 17.8079C25.1575 17.7524 25.1707 17.5457 25.046 17.4368C24.9246 17.3275 24.7441 17.3649 24.6128 17.3945C24.4258 17.4365 21.476 19.3881 15.7535 23.2492C14.9168 23.8247 14.1588 24.1053 13.4763 24.0905C12.7282 24.0744 11.2844 23.6666 10.2114 23.3181C8.89894 22.8905 7.85222 22.6645 7.9441 21.9383C7.99003 21.5603 8.51175 21.1735 9.50597 20.7781Z" fill="white"/>
</g>
<defs>
<linearGradient id="paint0_linear_5058_38958" x1="2100" y1="0" x2="2100" y2="4200" gradientUnits="userSpaceOnUse">
<stop stop-color="#2AABEE"/>
<stop offset="1" stop-color="#229ED9"/>
</linearGradient>
<clipPath id="clip0_5058_38958">
<rect width="42" height="42" fill="white"/>
</clipPath>
</defs>
</svg>
