<svg width="41" height="47" viewBox="0 0 41 47" fill="none" xmlns="http://www.w3.org/2000/svg">
<g clip-path="url(#clip0_5058_51202)">
<path d="M30.3849 16.9236C33.3763 19.0864 37.041 20.359 40.999 20.359V12.6558C40.2498 12.656 39.5028 12.5769 38.7699 12.4199V18.4833C34.8123 18.4833 31.1481 17.2109 28.156 15.0483V30.7683C28.156 38.6324 21.8529 45.0069 14.0783 45.0069C11.1774 45.0069 8.481 44.1199 6.24121 42.5986C8.79763 45.2424 12.3627 46.8824 16.3067 46.8824C24.082 46.8824 30.3852 40.5079 30.3852 32.6435V16.9236H30.3849ZM33.1348 9.15206C31.606 7.46282 30.6021 5.27975 30.3849 2.86622V1.87549H28.2726C28.8043 4.94297 30.6181 7.56362 33.1348 9.15206ZM11.1586 36.5641C10.3045 35.4315 9.84281 34.0457 9.84489 32.6209C9.84489 29.0243 12.7279 26.108 16.2848 26.108C16.9475 26.1077 17.6064 26.2106 18.2382 26.4132V18.5378C17.4999 18.4355 16.7548 18.3919 16.0101 18.408V24.5378C15.378 24.335 14.7188 24.2321 14.0557 24.2327C10.499 24.2327 7.61615 27.1487 7.61615 30.7458C7.61615 33.2893 9.05708 35.4913 11.1586 36.5641Z" fill="#FF004F"/>
<path d="M28.1561 15.0481C31.1483 17.2108 34.8121 18.4832 38.7699 18.4832V12.4197C36.5607 11.9437 34.6051 10.7762 33.1347 9.15206C30.6178 7.56346 28.8044 4.94281 28.2727 1.87549H22.7244V32.6431C22.7117 36.2301 19.8337 39.1343 16.2845 39.1343C14.1932 39.1343 12.335 38.1261 11.1584 36.5639C9.05711 35.4913 7.61602 33.2892 7.61602 30.746C7.61602 27.1492 10.4988 24.2329 14.0556 24.2329C14.737 24.2329 15.3938 24.3402 16.01 24.5379V18.4081C8.3718 18.5678 2.229 24.88 2.229 32.6433C2.229 36.5187 3.75866 40.0319 6.2414 42.5989C8.48118 44.1199 11.1774 45.0072 14.0785 45.0072C21.8533 45.0072 28.1562 38.6322 28.1562 30.7683L28.1561 15.0481Z" fill="black"/>
<path d="M38.7698 12.4193V10.7802C36.7776 10.7832 34.8248 10.219 33.1346 9.15187C34.6307 10.8086 36.6009 11.951 38.7698 12.4197M28.2724 1.87514C28.2217 1.58205 28.1828 1.28701 28.1558 0.990728V0H20.4949V30.768C20.4827 34.3546 17.6047 37.2588 14.0553 37.2588C13.0491 37.2604 12.0566 37.0224 11.1581 36.5641C12.3348 38.1259 14.1929 39.134 16.2842 39.134C19.8333 39.134 22.7116 36.23 22.7241 32.6431V1.8753L28.2724 1.87514ZM16.0102 18.4078V16.6625C15.37 16.5739 14.7246 16.5296 14.0785 16.5299C6.30295 16.5299 0 22.9047 0 30.768C0 35.698 2.47714 40.0427 6.24145 42.5984C3.75871 40.0315 2.22905 36.5182 2.22905 32.643C2.22905 24.8799 8.37169 18.5674 16.0102 18.4078Z" fill="#00F2EA"/>
</g>
<defs>
<clipPath id="clip0_5058_51202">
<rect width="41" height="47" fill="white"/>
</clipPath>
</defs>
</svg>
