<svg width="149" height="45" viewBox="0 0 149 45" fill="none" xmlns="http://www.w3.org/2000/svg">
<path opacity="0.7" d="M6.33185 45.0001C2.8302 45.0001 0.00195312 42.1876 0.00195312 38.7055V26.6518C0.00195312 23.1697 2.8302 20.3572 6.33185 20.3572C9.83349 20.3572 12.6617 23.1697 12.6617 26.6518V38.7055C12.6617 42.1876 9.83349 45.0001 6.33185 45.0001Z" fill="#007FE5"/>
<path opacity="0.7" d="M11.7188 34.0177C8.21717 34.0177 5.38892 31.2052 5.38892 27.723V15.6694C5.38892 12.1873 8.21717 9.37476 11.7188 9.37476C15.2205 9.37476 18.0487 12.1873 18.0487 15.6694V27.723C18.0487 31.2052 15.2205 34.0177 11.7188 34.0177Z" fill="#9D0F29"/>
<path opacity="0.7" d="M17.3758 24.6429C13.8741 24.6429 11.0459 21.8304 11.0459 18.3483V6.29466C11.0459 2.81251 13.8741 0 17.3758 0C20.8774 0 23.7057 2.81251 23.7057 6.29466V18.3483C23.7057 21.8304 20.8774 24.6429 17.3758 24.6429Z" fill="#007FE5"/>
<path d="M36.5356 32.8446C35.3337 32.8446 34.2519 32.6386 33.2904 32.2265C32.3288 31.7972 31.5733 31.1962 31.0238 30.4235C30.4744 29.6509 30.1997 28.7494 30.1997 27.7192H33.3419C33.4106 28.4918 33.711 29.1272 34.2433 29.6251C34.7928 30.1231 35.5569 30.372 36.5356 30.372C37.5487 30.372 38.3385 30.1316 38.9052 29.6509C39.4718 29.1529 39.7551 28.5176 39.7551 27.7449C39.7551 27.144 39.5748 26.6546 39.2142 26.2768C38.8708 25.8991 38.433 25.6072 37.9007 25.4011C37.3856 25.1951 36.6644 24.9719 35.7372 24.7315C34.5696 24.4224 33.6166 24.1133 32.8783 23.8043C32.1571 23.478 31.539 22.9801 31.0238 22.3104C30.5087 21.6408 30.2512 20.7479 30.2512 19.6318C30.2512 18.6016 30.5087 17.7001 31.0238 16.9274C31.539 16.1548 32.2601 15.5624 33.1873 15.1503C34.1146 14.7382 35.1877 14.5321 36.4068 14.5321C38.1411 14.5321 39.5576 14.97 40.6566 15.8457C41.7726 16.7042 42.3908 17.889 42.511 19.4H39.2657C39.2142 18.7475 38.9052 18.1895 38.3385 17.7259C37.7719 17.2623 37.025 17.0305 36.0978 17.0305C35.2564 17.0305 34.5696 17.2451 34.0373 17.6744C33.505 18.1036 33.2389 18.7218 33.2389 19.5288C33.2389 20.0782 33.402 20.5333 33.7282 20.8939C34.0716 21.2373 34.5009 21.512 35.016 21.718C35.5311 21.9241 36.2351 22.1473 37.128 22.3877C38.3128 22.7139 39.2743 23.0402 40.0127 23.3664C40.7682 23.6927 41.4035 24.1992 41.9186 24.886C42.4509 25.5557 42.717 26.4571 42.717 27.5904C42.717 28.5004 42.4681 29.359 41.9701 30.166C41.4893 30.973 40.7768 31.6255 39.8324 32.1234C38.9052 32.6042 37.8062 32.8446 36.5356 32.8446ZM52.3373 32.8961C50.998 32.8961 49.7874 32.5956 48.7057 31.9947C47.6239 31.3765 46.774 30.518 46.1558 29.4191C45.5377 28.303 45.2286 27.0152 45.2286 25.5557C45.2286 24.1133 45.5463 22.8341 46.1816 21.718C46.8169 20.602 47.684 19.7434 48.783 19.1424C49.8819 18.5415 51.1096 18.241 52.466 18.241C53.8225 18.241 55.0502 18.5415 56.1491 19.1424C57.2481 19.7434 58.1152 20.602 58.7505 21.718C59.3858 22.8341 59.7035 24.1133 59.7035 25.5557C59.7035 26.998 59.3772 28.2772 58.7247 29.3933C58.0723 30.5094 57.1794 31.3765 56.0461 31.9947C54.93 32.5956 53.6937 32.8961 52.3373 32.8961ZM52.3373 30.3463C53.0928 30.3463 53.7968 30.166 54.4493 29.8054C55.1189 29.4448 55.6598 28.9039 56.0719 28.1828C56.484 27.4616 56.69 26.5859 56.69 25.5557C56.69 24.5254 56.4926 23.6583 56.0976 22.9543C55.7027 22.2332 55.179 21.6923 54.5265 21.3317C53.874 20.9711 53.17 20.7908 52.4145 20.7908C51.659 20.7908 50.955 20.9711 50.3026 21.3317C49.6672 21.6923 49.1607 22.2332 48.783 22.9543C48.4052 23.6583 48.2163 24.5254 48.2163 25.5557C48.2163 27.0839 48.6027 28.2686 49.3753 29.11C50.1652 29.9342 51.1525 30.3463 52.3373 30.3463ZM65.2074 30.269H71.6464V32.6643H61.8076V30.269L68.2723 20.8681H61.8076V18.4728H71.6464V20.8681L65.2074 30.269ZM76.2233 16.5926C75.691 16.5926 75.2445 16.4123 74.884 16.0517C74.5234 15.6912 74.3431 15.2447 74.3431 14.7124C74.3431 14.1801 74.5234 13.7337 74.884 13.3731C75.2445 13.0125 75.691 12.8322 76.2233 12.8322C76.7384 12.8322 77.1762 13.0125 77.5368 13.3731C77.8974 13.7337 78.0777 14.1801 78.0777 14.7124C78.0777 15.2447 77.8974 15.6912 77.5368 16.0517C77.1762 16.4123 76.7384 16.5926 76.2233 16.5926ZM77.6656 18.4728V32.6643H74.7294V18.4728H77.6656ZM80.5418 25.5042C80.5418 24.079 80.8337 22.817 81.4175 21.718C82.0185 20.6191 82.8255 19.7692 83.8386 19.1682C84.8688 18.5501 86.0021 18.241 87.2383 18.241C88.3544 18.241 89.3246 18.4642 90.1488 18.9106C90.9901 19.3399 91.6598 19.8808 92.1577 20.5333V18.4728H95.1197V32.6643H92.1577V30.5523C91.6598 31.222 90.9815 31.78 90.123 32.2265C89.2645 32.6729 88.2858 32.8961 87.1868 32.8961C85.9677 32.8961 84.8516 32.587 83.8386 31.9689C82.8255 31.3336 82.0185 30.4579 81.4175 29.3418C80.8337 28.2085 80.5418 26.9293 80.5418 25.5042ZM92.1577 25.5557C92.1577 24.5769 91.9517 23.727 91.5396 23.0058C91.1447 22.2847 90.621 21.7352 89.9685 21.3575C89.316 20.9797 88.612 20.7908 87.8565 20.7908C87.101 20.7908 86.397 20.9797 85.7445 21.3575C85.092 21.718 84.5597 22.2589 84.1476 22.9801C83.7527 23.6841 83.5553 24.5254 83.5553 25.5042C83.5553 26.4829 83.7527 27.3414 84.1476 28.0798C84.5597 28.8181 85.092 29.3847 85.7445 29.7796C86.4142 30.1574 87.1182 30.3463 87.8565 30.3463C88.612 30.3463 89.316 30.1574 89.9685 29.7796C90.621 29.4019 91.1447 28.8524 91.5396 28.1313C91.9517 27.3929 92.1577 26.5344 92.1577 25.5557ZM101.912 13.6049V32.6643H98.9762V13.6049H101.912ZM118.774 25.2208C118.774 25.7531 118.74 26.2339 118.671 26.6632H107.828C107.914 27.7964 108.334 28.7065 109.09 29.3933C109.845 30.0801 110.773 30.4235 111.871 30.4235C113.451 30.4235 114.567 29.7625 115.22 28.4403H118.388C117.958 29.7453 117.177 30.8185 116.044 31.6598C114.928 32.484 113.537 32.8961 111.871 32.8961C110.515 32.8961 109.296 32.5956 108.214 31.9947C107.15 31.3765 106.308 30.518 105.69 29.4191C105.089 28.303 104.789 27.0152 104.789 25.5557C104.789 24.0962 105.08 22.817 105.664 21.718C106.265 20.602 107.098 19.7434 108.163 19.1424C109.244 18.5415 110.481 18.241 111.871 18.241C113.211 18.241 114.404 18.5329 115.452 19.1167C116.499 19.7005 117.315 20.5247 117.898 21.5893C118.482 22.6367 118.774 23.8472 118.774 25.2208ZM115.709 24.2936C115.692 23.2119 115.306 22.3448 114.55 21.6923C113.795 21.0398 112.859 20.7136 111.743 20.7136C110.73 20.7136 109.863 21.0398 109.141 21.6923C108.42 22.3276 107.991 23.1947 107.854 24.2936H115.709ZM128.824 18.241C129.94 18.241 130.936 18.4728 131.811 18.9364C132.704 19.4 133.4 20.0868 133.898 20.9969C134.396 21.9069 134.645 23.0058 134.645 24.2936V32.6643H131.734V24.7315C131.734 23.4609 131.416 22.4907 130.781 21.8211C130.146 21.1342 129.279 20.7908 128.18 20.7908C127.081 20.7908 126.205 21.1342 125.553 21.8211C124.917 22.4907 124.6 23.4609 124.6 24.7315V32.6643H121.664V18.4728H124.6V20.0954C125.081 19.5116 125.69 19.0566 126.428 18.7304C127.184 18.4041 127.982 18.241 128.824 18.241ZM143.541 32.8961C142.425 32.8961 141.42 32.6986 140.528 32.3037C139.652 31.8916 138.956 31.3422 138.441 30.6553C137.926 29.9513 137.651 29.1701 137.617 28.3116H140.656C140.708 28.9125 140.991 29.4191 141.506 29.8312C142.039 30.2261 142.7 30.4235 143.489 30.4235C144.314 30.4235 144.949 30.269 145.395 29.9599C145.859 29.6337 146.091 29.2216 146.091 28.7237C146.091 28.1914 145.833 27.7964 145.318 27.5389C144.82 27.2813 144.022 26.998 142.923 26.6889C141.858 26.397 140.991 26.1137 140.321 25.839C139.652 25.5643 139.068 25.1436 138.57 24.5769C138.089 24.0103 137.849 23.2634 137.849 22.3362C137.849 21.5807 138.072 20.8939 138.519 20.2757C138.965 19.6404 139.6 19.1424 140.425 18.7819C141.266 18.4213 142.227 18.241 143.309 18.241C144.923 18.241 146.22 18.6531 147.198 19.4773C148.194 20.2843 148.727 21.3918 148.795 22.7998H145.859C145.808 22.1645 145.55 21.6579 145.086 21.2802C144.623 20.9024 143.996 20.7136 143.206 20.7136C142.433 20.7136 141.841 20.8595 141.429 21.1514C141.017 21.4433 140.811 21.8297 140.811 22.3104C140.811 22.6882 140.948 23.0058 141.223 23.2634C141.498 23.521 141.833 23.727 142.227 23.8815C142.622 24.0189 143.206 24.1992 143.979 24.4224C145.009 24.6971 145.85 24.9805 146.503 25.2724C147.173 25.5471 147.748 25.9592 148.229 26.5086C148.709 27.0581 148.958 27.7879 148.975 28.6979C148.975 29.5049 148.752 30.2261 148.306 30.8614C147.859 31.4967 147.224 31.9947 146.4 32.3552C145.593 32.7158 144.64 32.8961 143.541 32.8961Z" fill="#6E7992"/>
</svg>
